<svg xmlns="http://www.w3.org/2000/svg" viewBox="0 0 500 500"><defs><style>.cls-1,.cls-2{fill:#e6e6e6;}.cls-1{stroke:#e6e6e6;stroke-miterlimit:10;stroke-width:10px;}</style></defs><title>Shortcode generator block 2</title><g id="Blocks"><path class="cls-1" d="M98.48,111.32h52.06v17.34H115.82V354.33h34.72v17.35H98.48Z"/><path class="cls-1" d="M401.36,376.94H349.29V359.6H384V133.93H349.29V116.59h52.07Z"/><g id="Advanced"><path class="cls-2" d="M293,222.12a2.41,2.41,0,0,0-1.49,1.06l-7.44,11.65a45,45,0,0,0-7.93-.17q-1.17-2-3.19-5.81t-3-5.5a2.86,2.86,0,0,0-1.32-1.24,2.43,2.43,0,0,0-1.72-.19q-4.57.92-16.6,6.13a2.93,2.93,0,0,0-1.44,1.4,2.42,2.42,0,0,0-.11,1.91l3,12.94a45.3,45.3,0,0,0-5.24,5l-13.42-3.65a2.21,2.21,0,0,0-1.81.13,2.82,2.82,0,0,0-1.32,1.42l-6.72,15.16a2.52,2.52,0,0,0,.83,3.31,123.39,123.39,0,0,0,11.82,7.6,43.06,43.06,0,0,0-.16,7.36l-11.48,6.19a3.16,3.16,0,0,0-1.47,1.47c-.44,1,.23,3.88,2,8.62a73.33,73.33,0,0,0,4.36,10,3.12,3.12,0,0,0,1.3,1.31,2.83,2.83,0,0,0,1.94,0q7.56-2.11,12.66-3.13a37,37,0,0,0,5.1,5.44l-3.71,13.55a2.24,2.24,0,0,0,.31,1.69,2.91,2.91,0,0,0,1.33,1.25l15.16,6.71a2.8,2.8,0,0,0,1.85.16,2.34,2.34,0,0,0,1.48-1.05L274,321.2a37.08,37.08,0,0,0,8,.19q1.17,2,3.18,5.82t3,5.5a2.93,2.93,0,0,0,1.33,1.24,3,3,0,0,0,1.78.22q4.88-1,16.47-6.19a2.58,2.58,0,0,0,1.5-1.37,2.7,2.7,0,0,0,.15-2l-3.05-12.87a44.68,44.68,0,0,0,5.25-5L325,310.39a2.23,2.23,0,0,0,1.82-.14,2.79,2.79,0,0,0,1.32-1.41l6.72-15.16a2.52,2.52,0,0,0-.83-3.31,122.87,122.87,0,0,0-11.82-7.61,43,43,0,0,0,.16-7.36l11.55-6.16a3.65,3.65,0,0,0,1.4-1.5q.66-1.5-2-8.57a75.3,75.3,0,0,0-4.38-10,2.49,2.49,0,0,0-1.3-1.31,2.86,2.86,0,0,0-2-.07Q317.43,250,313,250.9a48.39,48.39,0,0,0-5-5.42L311.61,232a2.28,2.28,0,0,0-.28-1.76A2.93,2.93,0,0,0,310,229l-15.16-6.71A2.8,2.8,0,0,0,293,222.12Zm11,46.27a26.74,26.74,0,1,1-14.12-14.84A25.77,25.77,0,0,1,304,268.39Z"/></g><path class="cls-2" d="M247.33,200.49a2.07,2.07,0,0,0-.73-1.23,1.72,1.72,0,0,0-1.3-.4l-9.41-.1a32.29,32.29,0,0,0-2.58-4.46l4.77-8.62a1.53,1.53,0,0,0,.21-1.27,2,2,0,0,0-.75-1.15l-9.31-7.17a1.76,1.76,0,0,0-2.41,0,85.06,85.06,0,0,0-7.23,6.86,30,30,0,0,0-5.05-1.34l-2.33-9a2.22,2.22,0,0,0-.76-1.26q-.93-.71-6.28,0a52.68,52.68,0,0,0-7.6,1.32,2.22,2.22,0,0,0-1.12.68,2,2,0,0,0-.36,1.32q.19,5.56,0,9.25a26.53,26.53,0,0,0-4.61,2.6l-8.7-4.84a1.59,1.59,0,0,0-1.22-.06,2,2,0,0,0-1.08.7l-7.17,9.31a2.08,2.08,0,0,0-.43,1.25,1.69,1.69,0,0,0,.48,1.2l6.8,7a26.22,26.22,0,0,0-1.47,5.47c-1.05.31-2.56.72-4.55,1.21s-3.41.88-4.28,1.15a2,2,0,0,0-1.08.7,2.09,2.09,0,0,0-.45,1.19q-.12,3.52,1.49,12.38a1.81,1.81,0,0,0,.69,1.27,1.91,1.91,0,0,0,1.34.43l9.37.07a33.8,33.8,0,0,0,2.58,4.46l-4.77,8.62a1.58,1.58,0,0,0-.21,1.27,2,2,0,0,0,.75,1.15l9.31,7.17a1.78,1.78,0,0,0,2.42,0,83.86,83.86,0,0,0,7.22-6.86,31.06,31.06,0,0,0,5,1.35l2.3,9a2.57,2.57,0,0,0,.8,1.21q.92.72,6.23.06a53.82,53.82,0,0,0,7.65-1.33,1.81,1.81,0,0,0,1.12-.67,2,2,0,0,0,.38-1.38q-.17-6,0-9.24a34.84,34.84,0,0,0,4.57-2.56l8.67,4.81a1.62,1.62,0,0,0,1.25.1,2.08,2.08,0,0,0,1.08-.71l7.18-9.31a2,2,0,0,0,.42-1.25,1.69,1.69,0,0,0-.48-1.2L237,222.59a31.16,31.16,0,0,0,1.45-5.43c1-.31,2.55-.72,4.54-1.21s3.42-.88,4.29-1.15a2,2,0,0,0,1.08-.7,1.68,1.68,0,0,0,.41-1.15Q248.9,209.65,247.33,200.49Zm-24.23,23a19,19,0,0,1-26.61,3.45,19.39,19.39,0,0,1-3.93-4,18.46,18.46,0,0,1-3.3-8.58,19,19,0,0,1,30.39-17.47,19.44,19.44,0,0,1,3.94,4,19.15,19.15,0,0,1-.49,22.6Z"/></g></svg>