<svg xmlns="http://www.w3.org/2000/svg" viewBox="0 0 500 500"><defs><style>.cls-1,.cls-2{fill:#757575;}.cls-1{stroke:#757575;stroke-miterlimit:10;stroke-width:15.8px;}</style></defs><title>Shortcode generator block</title><g id="Blocks"><path class="cls-1" d="M98.61,111.32h52.07v17.34H116V354.33h34.72v17.35H98.61Z"/><path class="cls-1" d="M401.49,376.94H349.43V359.6h34.72V133.93H349.43V116.59h52.06Z"/><g id="Advanced"><path class="cls-2" d="M293.13,222.12a2.38,2.38,0,0,0-1.49,1.06l-7.45,11.65a45,45,0,0,0-7.93-.17c-.77-1.32-1.84-3.26-3.18-5.81s-2.35-4.39-3-5.5a2.88,2.88,0,0,0-1.33-1.24,2.4,2.4,0,0,0-1.71-.19q-4.57.92-16.6,6.13a2.85,2.85,0,0,0-1.44,1.4,2.42,2.42,0,0,0-.11,1.91l3,12.94a46.17,46.17,0,0,0-5.25,5l-13.41-3.65a2.23,2.23,0,0,0-1.82.13,2.82,2.82,0,0,0-1.32,1.42l-6.71,15.16a2.52,2.52,0,0,0,.82,3.31,124.75,124.75,0,0,0,11.82,7.6,43.06,43.06,0,0,0-.15,7.36l-11.48,6.19a3.16,3.16,0,0,0-1.47,1.47c-.45,1,.23,3.88,2,8.62a76,76,0,0,0,4.36,10,3.18,3.18,0,0,0,1.3,1.31,2.84,2.84,0,0,0,1.94,0q7.56-2.11,12.66-3.13a37,37,0,0,0,5.11,5.44l-3.72,13.55a2.25,2.25,0,0,0,.32,1.69,2.93,2.93,0,0,0,1.32,1.25l15.16,6.71a2.8,2.8,0,0,0,1.85.16,2.33,2.33,0,0,0,1.49-1.05l7.38-11.68a37.06,37.06,0,0,0,8,.19q1.15,2,3.18,5.82c1.35,2.56,2.34,4.39,3,5.5a2.88,2.88,0,0,0,1.33,1.24,3,3,0,0,0,1.78.22q4.86-1,16.46-6.19a2.6,2.6,0,0,0,1.51-1.37,2.69,2.69,0,0,0,.14-2l-3-12.87a46.3,46.3,0,0,0,5.25-5l13.41,3.66a2.24,2.24,0,0,0,1.82-.14,2.84,2.84,0,0,0,1.32-1.41L335,293.68a2.51,2.51,0,0,0-.82-3.31,124.22,124.22,0,0,0-11.82-7.61,43,43,0,0,0,.15-7.36l11.55-6.16a3.58,3.58,0,0,0,1.4-1.5c.44-1-.22-3.86-2-8.57a73.71,73.71,0,0,0-4.39-10,2.47,2.47,0,0,0-1.29-1.31,2.87,2.87,0,0,0-2-.07q-8.19,2.25-12.66,3.13a47.64,47.64,0,0,0-5-5.42L311.75,232a2.29,2.29,0,0,0-.29-1.76,2.88,2.88,0,0,0-1.33-1.24L295,222.29A2.77,2.77,0,0,0,293.13,222.12Zm11,46.27A26.75,26.75,0,1,1,290,253.55,25.77,25.77,0,0,1,304.16,268.39Z"/></g><g id="Advanced-2" data-name="Advanced"><path class="cls-2" d="M244.37,230.88a1.69,1.69,0,0,0-.48-1.2l-6.77-7.09a32.08,32.08,0,0,0,1.44-5.43c1.05-.31,2.56-.72,4.55-1.21s3.41-.88,4.28-1.15a2,2,0,0,0,1.08-.7,1.75,1.75,0,0,0,.42-1.15q.13-3.3-1.43-12.46a2.06,2.06,0,0,0-.72-1.23,1.74,1.74,0,0,0-1.3-.4l-9.41-.1a34.46,34.46,0,0,0-2.58-4.46l4.77-8.62a1.57,1.57,0,0,0,.21-1.27,2,2,0,0,0-.75-1.15l-9.31-7.17a1.79,1.79,0,0,0-2.42,0,85.54,85.54,0,0,0-7.22,6.86,30,30,0,0,0-5-1.34l-2.33-9a2.23,2.23,0,0,0-.77-1.26q-.92-.71-6.27,0a52.89,52.89,0,0,0-7.61,1.32,2.26,2.26,0,0,0-1.12.68,2,2,0,0,0-.35,1.32q.2,5.56,0,9.25a25.9,25.9,0,0,0-4.61,2.6l-8.71-4.84a1.58,1.58,0,0,0-1.22-.06,2,2,0,0,0-1.07.7l-7.18,9.31a2,2,0,0,0-.42,1.25,1.65,1.65,0,0,0,.48,1.2l6.8,7a26.22,26.22,0,0,0-1.48,5.47c-1,.31-2.55.72-4.54,1.21s-3.42.88-4.29,1.15a2,2,0,0,0-1.08.7,2.09,2.09,0,0,0-.45,1.19A70.83,70.83,0,0,0,169,223.24a1.86,1.86,0,0,0,.7,1.27,1.89,1.89,0,0,0,1.34.43l9.37.07a31.71,31.71,0,0,0,2.58,4.46l-4.77,8.62a1.58,1.58,0,0,0-.22,1.27,2,2,0,0,0,.76,1.15l9.31,7.17a1.78,1.78,0,0,0,2.42,0,87,87,0,0,0,7.22-6.86,31.06,31.06,0,0,0,5.05,1.35l2.29,9a2.64,2.64,0,0,0,.8,1.21q.93.72,6.24.06a53.61,53.61,0,0,0,7.64-1.33,1.79,1.79,0,0,0,1.12-.67,2.09,2.09,0,0,0,.39-1.38q-.18-6,0-9.24a34.89,34.89,0,0,0,4.58-2.56l8.66,4.81a1.65,1.65,0,0,0,1.26.1,2.12,2.12,0,0,0,1.08-.71l7.17-9.31A2.08,2.08,0,0,0,244.37,230.88Zm-33.72-.18a19,19,0,1,1,12.59-7.23A18.24,18.24,0,0,1,210.65,230.7Z"/></g></g></svg>