<svg xmlns="http://www.w3.org/2000/svg" viewBox="0 0 500 500"><defs><style>.cls-1{fill:#e6e6e6;}</style></defs><title>LottieFiles block 2</title><g id="Blocks"><path class="cls-1" d="M334.41,173.42V320c-.54.05-.6.43-.58.85,0,1.1-1,1.88-.88,3,0,.07-.14.13-.2.21-.25.38-.82.67-.87,1-.16,1.15-1.22,1.53-1.78,2.33A1.38,1.38,0,0,1,329,328a.4.4,0,0,0-.36.24c-.5,1.07-1.67,1.14-2.55,1.61a4.81,4.81,0,0,1-3,.82.41.41,0,0,0-.32.14,1.46,1.46,0,0,1-1.22.39H180.87c-.72,0-1.43,0-2.15,0-.22,0-.52,0-.64-.1-.54-.56-1.22-.44-1.87-.48-.24,0-.58,0-.71-.11-.69-.77-1.75-.71-2.59-1.07a7,7,0,0,1-2.26-1.72,12.07,12.07,0,0,1-2.92-3.46,8.2,8.2,0,0,1-1.16-2.88c0-.4-.15-.68-.59-.7v-148c.13-.37.52-.6.57-1a8.1,8.1,0,0,1,1.35-3.28c.17-.3.64-.3.65-.65a1.54,1.54,0,0,1,.83-1.28c.77-.54,1.07-1.69,2.23-1.74.07,0,.16-.11.21-.19.71-1,1.9-1.25,2.94-1.66a8,8,0,0,0,1.73-.69H323.9c0,.44.32.58.7.58,1,0,1.81.94,2.88.84a.28.28,0,0,1,.13.07c.54.48,1.08,1,1.61,1.44a7.88,7.88,0,0,0,1.68,1.55c.91.43,1.11,1.3,1.52,2s.57,1.29.87,1.86a4.72,4.72,0,0,1,.54,2.06A.84.84,0,0,0,334.41,173.42Zm-42.27,38a2.9,2.9,0,0,0,.59,0c1.25-.2,2.64.52,3.76-.55.07-.07.24,0,.37,0s.37,0,.38-.16c.08-.6.72-.67,1-1.05s.34-.64.66-.81a1.75,1.75,0,0,0,1.1-1.89c0-.19,0-.49.14-.55.8-.24.57-.87.58-1.4q0-1.26,0-2.52c0-.53.22-1.18-.59-1.39-.07,0-.13-.22-.12-.33.11-.77-.66-1-.92-1.51a4.87,4.87,0,0,0-1.75-1.77c-.53-.38-.89-1-1.7-.88-.27,0-.66.1-.78-.26s-.51-.46-.88-.46h-1.56a1,1,0,0,1-1-.39,2.61,2.61,0,0,0-2.22,0c-.25.4-.59.38-.95.38h-1.85c-.25,0-.56,0-.64.25-.15.49-.51.48-.88.48a5.91,5.91,0,0,1-1.33,0c-.9-.17-1.4.84-2.26.72,0,0-.09.06-.1.1-.13.61-.62.57-1.05.52-.83-.1-1.28.84-2.11.71,0,0-.08.06-.1.1-.49,1-1.59,1.2-2.44,1.65a19.55,19.55,0,0,0-1.66,1.15c-.5.34-.69,1.16-1.52,1-.18,0-.27.18-.39.3a16.72,16.72,0,0,0-1.63,1.63c-.4.54-1,.54-1.49.83-.86.52-.82,1.88-2,2.13-.48.1-.73.67-1.09,1-.53.52-1.34,1-1.48,1.62a3.08,3.08,0,0,1-1.07,1.52,26.63,26.63,0,0,1-2.13,2.12.38.38,0,0,0-.14.25c0,1.15-1.14,1.44-1.63,2.24-.33.54-1,.87-1.1,1.62a.42.42,0,0,1-.18.3c-.57.19-.71.8-1.09,1.17s-.77.18-.7.55c.12.7-.5,1-.69,1.51-.1.29-.58.28-.54.64.11.86-.79,1.21-1,2s-1.24,1-1.19,1.94c0,.08-.17.16-.26.24-.33.31-.84.57-.93.94a4.24,4.24,0,0,1-.61,1.31c-.2.31-.63.4-.68.81-.09.69-.92,1.08-.79,1.88,0,.05-.07.12-.11.17-.47.59-1.28.95-1.2,1.89,0,.06-.1.15-.17.22-.48.51-1.3.79-1.15,1.72a.25.25,0,0,1-.12.18c-.49.18-.41.6-.43,1s.11.74-.2.9c-1.12.55-1.1,1.83-1.74,2.7-.36.48-.93,1-.79,1.77,0,.06-.22.14-.26.23-.2.48-.84.64-.95,1.1a14.51,14.51,0,0,1-.53,1.95,4.84,4.84,0,0,1-1.05,1.45,8.11,8.11,0,0,0-1,1.88c-.29.56-.92,1.14-.78,1.94,0,.06-.19.15-.24.25-.22.51-.94.65-1,1.26s-.87,1.06-.71,1.82c0,0-.06.07-.1.1a2.15,2.15,0,0,0-1.16,1.82c0,.2-.2.23-.32.34-.46.38-1.07.68-1,1.45,0,.24-.15.34-.35.48-.38.29-.94.56-.94,1.08,0,.78-.9,1.17-.72,2,0,0-.06.08-.09.1a2.2,2.2,0,0,0-1.17,1.74c0,.23-.23.29-.38.41-.32.28-.84.59-.85.91-.05.85-.8,1.09-1.14,1.65s-1,.65-1,1.15c0,.75-.57,1-.9,1.47-.56.79-1.7,1.13-1.74,2.32a.39.39,0,0,1-.44.32c-.65,0-.89.29-.84.91a.34.34,0,0,1-.08.27c-.6.37-.95,1-1.47,1.41-.92.71-1.54,1.7-2.45,2.4-.74.56-1.11,1.66-2.29,1.59a.47.47,0,0,0-.29.2c-.35.64-.76,1.16-1.59,1.12-.18,0-.28.14-.38.3a1.72,1.72,0,0,1-1.8,1c-.27,0-.68-.12-.79.22-.16.51-.52.51-.92.51a.43.43,0,0,0-.44.21c-.17.43-.53.37-.87.37h-4.29c-.22,0-.53-.08-.63.11-.35.62-.91.46-1.43.48a.72.72,0,0,0-.65.25,2.16,2.16,0,0,1-1.55,1.09c-.16,0-.36.12-.34.25.14.75-.44,1.11-.86,1.51s-.4,1.15-.72,1.32c-.82.44-.62,1.33-1.05,1.93a1.55,1.55,0,0,0,.38,2.11c.1.07.08.32.1.49.07.59-.23,1.32.64,1.61.07,0,.09.26.1.41s.21.45.34.68a5.28,5.28,0,0,0,1.05,1c.66.63,1.07,1.62,2.2,1.63a.26.26,0,0,1,.24.24c.08.42.39.45.73.46s.48,0,.59.21.53.37.87.37h4.74c.2,0,.49,0,.57-.06.59-.79,1.43-.45,2.17-.53.22,0,.53.07.62-.14.32-.8,1-.54,1.56-.6.36,0,.76.13,1.05-.21.46-.54,1.4-.3,1.72-1.07,0,0,.15,0,.22,0,.81-.21,1.5-.84,2.42-.67.14,0,.19-.2.29-.3.46-.42.8-1.05,1.57-1a.48.48,0,0,0,.4-.16c.49-.54.82-1.24,1.75-1.27.23,0,.7-.43,1-.76.41-.48.79-1,1.5-1.06a.39.39,0,0,0,.37-.2c.39-.85,1.32-1.18,1.82-1.92s1.85-.48,1.69-1.76c0,0,0,0,.05,0,.5-.14.71-.85,1.36-.7a.28.28,0,0,0,.3-.28c-.09-.67.41-.94.79-1.33,1-1,2-2.05,3-3,.34-.32,1-.55,1-1.2a1,1,0,0,1,.43-.86c.5-.41.83-1,1.36-1.42.34-.28.91-.61.77-1.29,0-.21.21-.3.35-.43.33-.3.85-.64.87-1,0-.88.86-1.14,1.16-1.76s1-.44,1-1.07a1.76,1.76,0,0,1,.42-.93c.3-.46.94-.77.82-1.47a.34.34,0,0,1,.14-.24,2.25,2.25,0,0,0,1.18-1.74.42.42,0,0,1,.19-.29.78.78,0,0,0,.53-.87c0-.2.18-.32.27-.46.28-.5,1-.66,1-1.28s.83-1.13.75-1.89c0-.05.14-.12.21-.18.47-.42,1.09-.75,1-1.54a.53.53,0,0,1,.13-.33c.46-.6,1.29-.94,1.24-1.87,0-.07.11-.16.19-.22a2.55,2.55,0,0,0,1.15-2.14c0-.48.62-1,.62-1.61,0,0,.06-.07.1-.09,1.07-.44.95-1.79,1.83-2.38.07,0,0-.24,0-.36s0-.49.31-.61a.49.49,0,0,0,.28-.56c-.11-.7.48-1.11.84-1.4a1,1,0,0,0,.48-1c-.12-.86.84-1.34.73-2.19,0,0,.07-.08.11-.09,1.17-.31.85-1.79,1.8-2.27-.11-.63.37-1,.62-1.46.17-.31.59-.34.64-.76.09-.68.93-1.07.77-1.87,0-.05.07-.14.13-.16.38-.14.39-.46.41-.79,0-.16,0-.4.15-.47a2.22,2.22,0,0,0,1.2-1.88c0-.2.24-.23.35-.33.41-.4,1.05-.65,1-1.4,0-.28.17-.38.38-.54.46-.35,1-.67,1-1.41a.42.42,0,0,1,.08-.34c.72-.45.61-1.42,1.23-1.95.18-.16.56-.24.55-.54,0-.89.8-1.14,1.2-1.71.54-.76,1.62-1.15,1.55-2.32,0-.17.23-.19.29-.28a3.72,3.72,0,0,1,1.59-1.67s0-.1,0-.14a2.63,2.63,0,0,1,1-1.42c.78-.66,1.44-1.46,2.18-2.16a21.55,21.55,0,0,0,2-2c.37-.46.89-.8,1.25-1.22.54-.64,1-1.26,1.91-1.28,0,0,.12-.08.16-.14a2,2,0,0,1,1.74-1.13c.18,0,.28-.15.38-.3.35-.55.72-1.08,1.49-1a.42.42,0,0,0,.33-.13c.33-.57.9-.51,1.42-.58.17,0,.4,0,.48-.13.31-.61.86-.46,1.36-.47Z"/></g></svg>