<svg xmlns="http://www.w3.org/2000/svg" viewBox="0 0 500 500"><defs><style>.cls-1{fill:#757575;}</style></defs><title>LottieFiles block</title><g id="Blocks"><path class="cls-1" d="M333.35,173.42V320c-.55.05-.61.43-.59.85,0,1.1-1,1.88-.87,3,0,.07-.15.13-.2.21-.26.38-.82.67-.87,1-.17,1.15-1.23,1.53-1.78,2.33a1.4,1.4,0,0,1-1.16.68.39.39,0,0,0-.35.24c-.5,1.07-1.68,1.14-2.55,1.61a4.82,4.82,0,0,1-3,.82.43.43,0,0,0-.33.14,1.45,1.45,0,0,1-1.22.39H179.8c-.71,0-1.43,0-2.14,0-.22,0-.52,0-.65-.1-.53-.56-1.21-.44-1.86-.48-.25,0-.59,0-.72-.11-.69-.77-1.75-.71-2.59-1.07a7,7,0,0,1-2.26-1.72,12,12,0,0,1-2.91-3.46,8.2,8.2,0,0,1-1.16-2.88c0-.4-.15-.68-.6-.7v-148c.13-.37.53-.6.57-1a8,8,0,0,1,1.36-3.28c.17-.3.64-.3.64-.65a1.54,1.54,0,0,1,.83-1.28c.78-.54,1.08-1.69,2.23-1.74.08,0,.16-.11.21-.19.71-1,1.9-1.25,2.94-1.66a8,8,0,0,0,1.73-.69H322.84c0,.44.31.58.7.58,1,0,1.81.94,2.88.84a.21.21,0,0,1,.12.07c.54.48,1.08,1,1.61,1.44a7.88,7.88,0,0,0,1.68,1.55c.91.43,1.11,1.3,1.53,2s.57,1.29.86,1.86a4.6,4.6,0,0,1,.55,2.06A.81.81,0,0,0,333.35,173.42Zm-42.28,38a2.9,2.9,0,0,0,.59,0c1.25-.2,2.64.52,3.77-.55.07-.07.24,0,.36,0s.37,0,.39-.16c.07-.6.71-.67,1-1.05s.33-.64.65-.81A1.75,1.75,0,0,0,299,206.9c0-.19,0-.49.14-.55.79-.24.56-.87.58-1.4q0-1.26,0-2.52c0-.53.22-1.18-.6-1.39-.06,0-.13-.22-.12-.33.11-.77-.65-1-.92-1.51a4.84,4.84,0,0,0-1.74-1.77c-.54-.38-.89-1-1.71-.88-.26,0-.65.1-.77-.26s-.51-.46-.89-.46h-1.55c-.37,0-.7,0-1-.39a2.64,2.64,0,0,0-2.23,0c-.25.4-.59.38-.95.38H285.4c-.25,0-.56,0-.64.25-.14.49-.5.48-.87.48a5.9,5.9,0,0,1-1.33,0c-.9-.17-1.4.84-2.27.72,0,0-.09.06-.1.1-.13.61-.62.57-1.05.52-.82-.1-1.28.84-2.11.71,0,0-.08.06-.1.1-.49,1-1.59,1.2-2.43,1.65a16.8,16.8,0,0,0-1.66,1.15c-.51.34-.69,1.16-1.53,1-.17,0-.26.18-.38.3a18,18,0,0,0-1.64,1.63c-.4.54-1,.54-1.48.83-.87.52-.83,1.88-2,2.13-.48.1-.73.67-1.09,1-.53.52-1.33,1-1.48,1.62a3,3,0,0,1-1.07,1.52,25.07,25.07,0,0,1-2.13,2.12.38.38,0,0,0-.14.25c0,1.15-1.14,1.44-1.62,2.24-.34.54-1,.87-1.11,1.62a.39.39,0,0,1-.18.3c-.57.19-.71.8-1.09,1.17s-.76.18-.7.55c.12.7-.5,1-.68,1.51-.1.29-.59.28-.54.64.1.86-.8,1.21-1,2s-1.24,1-1.19,1.94c0,.08-.17.16-.25.24-.33.31-.85.57-.94.94a4.21,4.21,0,0,1-.6,1.31c-.21.31-.63.4-.69.81-.09.69-.91,1.08-.78,1.88,0,.05-.08.12-.12.17-.46.59-1.27.95-1.19,1.89,0,.06-.11.15-.17.22-.48.51-1.3.79-1.16,1.72a.22.22,0,0,1-.12.18c-.49.18-.41.6-.43,1s.12.74-.19.9c-1.13.55-1.11,1.83-1.75,2.7-.36.48-.92,1-.79,1.77,0,.06-.21.14-.25.23-.21.48-.84.64-1,1.1a13.16,13.16,0,0,1-.53,1.95,5,5,0,0,1-1,1.45,7.43,7.43,0,0,0-1,1.88c-.29.56-.93,1.14-.79,1.94,0,.06-.19.15-.23.25-.22.51-.95.65-1,1.26s-.86,1.06-.71,1.82c0,0-.05.07-.09.1a2.15,2.15,0,0,0-1.16,1.82c0,.2-.2.23-.33.34-.46.38-1.07.68-1,1.45,0,.24-.15.34-.34.48-.39.29-.95.56-.95,1.08,0,.78-.89,1.17-.72,2,0,0-.05.08-.09.1a2.2,2.2,0,0,0-1.17,1.74c0,.23-.22.29-.37.41-.32.28-.84.59-.86.91,0,.85-.79,1.09-1.14,1.65s-1,.65-1,1.15c0,.75-.56,1-.89,1.47-.56.79-1.71,1.13-1.75,2.32,0,.21-.23.33-.43.32-.65,0-.89.29-.85.91,0,.09,0,.23-.07.27-.6.37-1,1-1.47,1.41-.92.71-1.55,1.7-2.46,2.4-.74.56-1.1,1.66-2.28,1.59a.42.42,0,0,0-.29.2c-.35.64-.76,1.16-1.59,1.12-.18,0-.29.14-.39.3a1.71,1.71,0,0,1-1.79,1c-.28,0-.69-.12-.79.22-.17.51-.52.51-.92.51-.18,0-.38,0-.44.21-.18.43-.54.37-.88.37H205.3c-.22,0-.52-.08-.63.11-.34.62-.9.46-1.42.48a.71.71,0,0,0-.65.25,2.18,2.18,0,0,1-1.56,1.09c-.16,0-.35.12-.33.25.14.75-.45,1.11-.86,1.51s-.4,1.15-.73,1.32c-.81.44-.61,1.33-1,1.93a1.55,1.55,0,0,0,.37,2.11c.1.07.09.32.11.49.06.59-.24,1.32.63,1.61.08,0,.1.26.1.41s.21.45.34.68a5.28,5.28,0,0,0,1.05,1c.66.63,1.07,1.62,2.2,1.63a.27.27,0,0,1,.25.24c.08.42.38.45.72.46s.48,0,.59.21.53.37.88.37h4.74c.19,0,.48,0,.56-.06.59-.79,1.43-.45,2.17-.53.22,0,.54.07.62-.14.32-.8,1-.54,1.57-.6.35,0,.76.13,1-.21.46-.54,1.41-.3,1.73-1.07,0,0,.14,0,.21,0,.81-.21,1.51-.84,2.43-.67.13,0,.19-.2.29-.3.46-.42.79-1.05,1.56-1a.48.48,0,0,0,.4-.16c.49-.54.82-1.24,1.76-1.27.22,0,.69-.43,1-.76a2.23,2.23,0,0,1,1.49-1.06.41.41,0,0,0,.38-.2c.38-.85,1.32-1.18,1.81-1.92s1.85-.48,1.69-1.76l.06,0c.5-.14.7-.85,1.36-.7a.28.28,0,0,0,.3-.28c-.1-.67.4-.94.79-1.33,1-1,2-2.05,3-3,.33-.32,1-.55,1-1.2a1,1,0,0,1,.44-.86c.5-.41.83-1,1.35-1.42.35-.28.92-.61.78-1.29,0-.21.2-.3.35-.43.32-.3.85-.64.87-1,0-.88.85-1.14,1.15-1.76s1-.44,1-1.07a1.62,1.62,0,0,1,.42-.93c.3-.46.93-.77.82-1.47a.31.31,0,0,1,.14-.24,2.27,2.27,0,0,0,1.18-1.74.39.39,0,0,1,.19-.29.78.78,0,0,0,.52-.87c0-.2.19-.32.27-.46.28-.5,1-.66,1-1.28s.83-1.13.75-1.89c0-.05.15-.12.22-.18.47-.42,1.09-.75,1-1.54a.54.54,0,0,1,.14-.33c.45-.6,1.29-.94,1.24-1.87,0-.07.11-.16.18-.22A2.5,2.5,0,0,0,252.4,256c0-.48.62-1,.62-1.61,0,0,.06-.07.11-.09,1.07-.44,1-1.79,1.83-2.38.06,0,0-.24,0-.36s0-.49.31-.61a.5.5,0,0,0,.27-.56c-.1-.7.48-1.11.84-1.4a1,1,0,0,0,.49-1c-.13-.86.83-1.34.73-2.19,0,0,.06-.08.1-.09,1.18-.31.85-1.79,1.8-2.27-.11-.63.37-1,.62-1.46.17-.31.59-.34.64-.76.09-.68.93-1.07.77-1.87,0-.05.08-.14.13-.16.38-.14.39-.46.42-.79,0-.16,0-.4.14-.47a2.26,2.26,0,0,0,1.21-1.88c0-.2.23-.23.34-.33.41-.4,1.05-.65,1-1.4,0-.28.16-.38.38-.54.45-.35,1-.67.95-1.41,0-.11,0-.29.09-.34.72-.45.6-1.42,1.23-1.95.18-.16.55-.24.54-.54,0-.89.8-1.14,1.21-1.71.54-.76,1.61-1.15,1.55-2.32,0-.17.22-.19.28-.28a3.72,3.72,0,0,1,1.59-1.67s0-.1,0-.14a2.61,2.61,0,0,1,1-1.42c.79-.66,1.45-1.46,2.19-2.16a21.45,21.45,0,0,0,2-2c.38-.46.9-.8,1.25-1.22.55-.64,1-1.26,1.91-1.28.06,0,.12-.08.16-.14a2,2,0,0,1,1.74-1.13c.19,0,.28-.15.38-.3.35-.55.72-1.08,1.5-1a.42.42,0,0,0,.33-.13c.32-.57.89-.51,1.41-.58.17,0,.41,0,.49-.13.31-.61.86-.46,1.35-.47Z"/></g></svg>