<svg xmlns="http://www.w3.org/2000/svg" viewBox="0 0 500 500"><defs><style>.cls-1{fill:#e6e6e6;}</style></defs><title>revolution slider block 2</title><g id="Blocks"><path class="cls-1" d="M354.42,135.36H147.24a12,12,0,0,0-12,12V354.54a12,12,0,0,0,12,12H354.42a12,12,0,0,0,12-12V147.36A12,12,0,0,0,354.42,135.36ZM182.72,251.07c0-.24,0-.48,0-.73s0-.24,0-.36a9.82,9.82,0,0,1,.06-1.09A67.84,67.84,0,0,1,297.54,202.1l20.39-20.88v52.9H265.78l17.65-17a45.78,45.78,0,0,0-32.86-13.94c-25.12,0-45.58,20.44-46.52,46,0,.25,0,.5,0,.76a10.68,10.68,0,0,1-21.3,1.09Zm136.21.85a10,10,0,0,1-.05,1.1A67.83,67.83,0,0,1,204.12,299.8l-20.4,20.89v-52.9h52.16l-17.65,17a45.79,45.79,0,0,0,32.86,13.95c25.11,0,45.58-20.45,46.52-46,0-.25,0-.5,0-.76a10.68,10.68,0,0,1,21.3-1.08h.05c0,.24,0,.48,0,.72S318.93,251.8,318.93,251.92Z"/></g></svg>