<svg xmlns="http://www.w3.org/2000/svg" viewBox="0 0 500 500"><defs><style>.cls-1{fill:#757575;}</style></defs><title>Revolution slider block</title><g id="Blocks"><path class="cls-1" d="M352.73,135.36H145.56a12,12,0,0,0-12,12V354.54a12,12,0,0,0,12,12H352.73a12,12,0,0,0,12-12V147.36A12,12,0,0,0,352.73,135.36ZM181,251.07c0-.24,0-.48,0-.73s0-.24,0-.36c0-.37,0-.73.05-1.09A67.84,67.84,0,0,1,295.85,202.1l20.4-20.88v52.9H264.1l17.65-17a45.81,45.81,0,0,0-32.86-13.94c-25.12,0-45.58,20.44-46.53,46,0,.25,0,.5,0,.76a10.68,10.68,0,0,1-21.31,1.09Zm136.21.85c0,.37,0,.74-.05,1.1A67.83,67.83,0,0,1,202.44,299.8L182,320.69v-52.9h52.15l-17.65,17a45.82,45.82,0,0,0,32.86,13.95c25.12,0,45.58-20.45,46.53-46,0-.25,0-.5,0-.76a10.68,10.68,0,0,1,21.31-1.08h.05c0,.24,0,.48,0,.72S317.25,251.8,317.25,251.92Z"/></g></svg>