<svg xmlns="http://www.w3.org/2000/svg" viewBox="0 0 500 500"><defs><style>.cls-1{fill:#757575;}</style></defs><title>Content slider block</title><g id="Blocks"><path class="cls-1" d="M369.25,183.6m-22.92,0,22.14,0-17.7-97.2-266,49.95,35.13,187L139.56,320V293.81l-2.38.63L111.57,158.05,333.7,116.34l12.63,67.26Z"/><path class="cls-1" d="M143.76,187.31V387.07H414.37V187.31ZM392.07,360.54h-226V214.88h226Z"/><path class="cls-1" d="M187.91,232.59V342.83H371.44V232.59Zm51.77,52.51-36,36v-72Zm-35.12-37.3H277L240.77,284Zm36.21,38.38,36,36h-72Zm1.08-1.08,36.21-36.21v72.42Zm86.51,36.81H292.81V306.67h35.55Zm29.09-29.73H292.81V276.94h64.64Zm0-29.25H292.81V247.8h64.64Z"/></g></svg>