<svg xmlns="http://www.w3.org/2000/svg" viewBox="0 0 500 500"><defs><style>.cls-1{fill:#e6e6e6;}</style></defs><title>Content slider block 2</title><g id="Blocks"><path class="cls-1" d="M369.47,183.6m-22.92,0,22.14,0L351,86.4,85,136.35l35.13,187L139.78,320V293.81l-2.38.63L111.79,158.05l222.12-41.71,12.64,67.26Z"/><path class="cls-1" d="M144,187.31V387.07H414.59V187.31ZM392.29,360.54h-226V214.88h226Z"/><path class="cls-1" d="M188.13,232.59V342.83H371.66V232.59ZM239.9,285.1l-36,36v-72Zm-35.13-37.3H277.2L241,284ZM241,286.18l36,36H205Zm1.08-1.08,36.21-36.21v72.42Zm86.51,36.81H293V306.67h35.55Zm29.09-29.73H293V276.94h64.64Zm0-29.25H293V247.8h64.64Z"/></g></svg>